# xmcd
#
# Track frame offsets:
#	151
#	18591
#	40651
#	65504
#	84274
#	99099
#	118234
#	136791
#	152318
#	165179
#	183215
#	198891
#	212476
#
# Disc length: 3161 seconds
#
# Revision: 0
# Processed by: cddbd v1.5.2PL0 Copyright (c) Steve Scherf et al.
# Submitted via: EZCDAudioConverter 7.1.0.1
#
DISCID=900c570d
DTITLE=那英 - 雾里看花
DYEAR=1993
DGENRE=
TTITLE0=雾里看花
TTITLE1=为你朝思暮想
TTITLE2=醒时作梦
TTITLE3=白天不懂夜的黑
TTITLE4=山不转水转
TTITLE5=过把瘾
TTITLE6=活的就是现在
TTITLE7=好大一棵树
TTITLE8=千万次的问
TTITLE9=关于昨夜
TTITLE10=欲走还留
TTITLE11=但愿好梦成真
TTITLE12=自由
EXTD=
EXTT0=
EXTT1=
EXTT2=
EXTT3=
EXTT4=
EXTT5=
EXTT6=
EXTT7=
EXTT8=
EXTT9=
EXTT10=
EXTT11=
EXTT12=
PLAYORDER=
